<?xml version="1.0" encoding="utf-8"?>
<!-- Generator: Adobe Illustrator 18.1.1, SVG Export Plug-In . SVG Version: 6.00 Build 0)  -->
<!DOCTYPE svg PUBLIC "-//W3C//DTD SVG 1.1//EN" "http://www.w3.org/Graphics/SVG/1.1/DTD/svg11.dtd">
<svg version="1.1" id="Calque_1" xmlns="http://www.w3.org/2000/svg" xmlns:xlink="http://www.w3.org/1999/xlink" x="0px" y="0px"
	 width="108px" height="19px" viewBox="0 0 108 19" style="enable-background:new 0 0 108 19;" xml:space="preserve">
<style type="text/css">
	.st0{fill:#F9B243;}
	.st1{fill:#B3B9BE;}
</style>
<g>
	<path class="st0" d="M19.1,6.5L13.6,6c-0.3,0-0.6-0.3-0.8-0.6l-2-4.8c-0.3-0.8-1.4-0.8-1.8,0l-2,4.8C7,5.7,6.7,5.9,6.4,6L0.9,6.5
		C0,6.6-0.3,7.6,0.3,8.1l4.2,3.6c0.3,0.2,0.4,0.6,0.3,0.9l-1.2,5.1c-0.2,0.8,0.7,1.5,1.4,1l4.6-2.7c0.3-0.2,0.7-0.2,1,0l4.6,2.7
		c0.7,0.4,1.6-0.2,1.4-1l-1.2-5.1c-0.1-0.3,0-0.7,0.3-0.9l4.2-3.6C20.3,7.6,20,6.6,19.1,6.5z"/>
</g>
<g>
	<path class="st0" d="M41.1,6.5L35.6,6c-0.3,0-0.6-0.3-0.8-0.6l-2-4.8c-0.3-0.8-1.4-0.8-1.8,0l-2,4.8C29,5.7,28.7,5.9,28.4,6
		l-5.5,0.5c-0.8,0.1-1.2,1.1-0.5,1.7l4.2,3.6c0.3,0.2,0.4,0.6,0.3,0.9l-1.2,5.1c-0.2,0.8,0.7,1.5,1.4,1l4.6-2.7c0.3-0.2,0.7-0.2,1,0
		l4.6,2.7c0.7,0.4,1.6-0.2,1.4-1l-1.2-5.1c-0.1-0.3,0-0.7,0.3-0.9l4.2-3.6C42.3,7.6,42,6.6,41.1,6.5z"/>
</g>
<g>
	<path class="st0" d="M63.1,6.5L57.6,6c-0.3,0-0.6-0.3-0.8-0.6l-2-4.8c-0.3-0.8-1.4-0.8-1.8,0l-2,4.8C51,5.7,50.7,5.9,50.4,6
		l-5.5,0.5c-0.8,0.1-1.2,1.1-0.5,1.7l4.2,3.6c0.3,0.2,0.4,0.6,0.3,0.9l-1.2,5.1c-0.2,0.8,0.7,1.5,1.4,1l4.6-2.7c0.3-0.2,0.7-0.2,1,0
		l4.6,2.7c0.7,0.4,1.6-0.2,1.4-1l-1.2-5.1c-0.1-0.3,0-0.7,0.3-0.9l4.2-3.6C64.3,7.6,64,6.6,63.1,6.5z"/>
</g>
<g>
	<path class="st1" d="M85.1,6.5L79.6,6c-0.3,0-0.6-0.3-0.8-0.6l-2-4.8c-0.3-0.8-1.4-0.8-1.8,0l-2,4.8C73,5.7,72.7,5.9,72.4,6
		l-5.5,0.5c-0.8,0.1-1.2,1.1-0.5,1.7l4.2,3.6c0.3,0.2,0.4,0.6,0.3,0.9l-1.2,5.1c-0.2,0.8,0.7,1.5,1.4,1l4.6-2.7c0.3-0.2,0.7-0.2,1,0
		l4.6,2.7c0.7,0.4,1.6-0.2,1.4-1l-1.2-5.1c-0.1-0.3,0-0.7,0.3-0.9l4.2-3.6C86.3,7.6,86,6.6,85.1,6.5z"/>
</g>
<g>
	<path class="st1" d="M107.1,6.5L101.6,6c-0.3,0-0.6-0.3-0.8-0.6l-2-4.8c-0.3-0.8-1.4-0.8-1.8,0l-2,4.8C95,5.7,94.7,5.9,94.4,6
		l-5.5,0.5c-0.8,0.1-1.2,1.1-0.5,1.7l4.2,3.6c0.3,0.2,0.4,0.6,0.3,0.9l-1.2,5.1c-0.2,0.8,0.7,1.5,1.4,1l4.6-2.7c0.3-0.2,0.7-0.2,1,0
		l4.6,2.7c0.7,0.4,1.6-0.2,1.4-1l-1.2-5.1c-0.1-0.3,0-0.7,0.3-0.9l4.2-3.6C108.3,7.6,108,6.6,107.1,6.5z"/>
</g>
</svg>
